# Blender v2.79 (sub 0) OBJ File: 'tools_190412.blend'
# www.blender.org
mtllib double_open_ended_spanner_190412.mtl
o double_open_ended_spanner_190412_Cube.002
v 0.004697 -0.110638 -0.021341
v 0.004697 -0.103255 -0.014267
v 0.004697 -0.090029 -0.010268
v 0.004697 0.106673 -0.010576
v 0.004697 0.120770 -0.020162
v 0.004697 0.132613 -0.021341
v 0.004697 0.145583 -0.014575
v 0.004697 0.157499 0.002013
v 0.004697 -0.116174 -0.031184
v 0.004697 -0.135245 -0.034260
v 0.004697 -0.153085 -0.028108
v 0.004697 -0.130673 -0.021410
v 0.004697 -0.130631 -0.008730
v 0.004697 -0.139243 0.002035
v 0.004697 -0.161697 -0.003501
v 0.004697 -0.152469 0.011878
v 0.004697 -0.133707 0.019218
v 0.004697 -0.120788 0.013723
v 0.004697 -0.105716 0.010032
v 0.004697 -0.094481 0.009614
v 0.004697 0.081604 0.010648
v 0.004697 0.099137 0.017209
v 0.004697 0.107032 0.028283
v 0.004697 0.117028 0.034486
v 0.004697 0.136099 0.035460
v 0.004697 0.150811 0.028488
v 0.004697 0.127435 0.020798
v 0.004697 0.125282 0.006649
v 0.004697 0.134509 -0.004219
v -0.004650 -0.110638 -0.021341
v -0.004650 -0.103255 -0.014267
v -0.004650 -0.090029 -0.010268
v -0.004650 0.106673 -0.010576
v -0.004650 0.120770 -0.020162
v -0.004650 0.132613 -0.021341
v -0.004650 0.145583 -0.014575
v -0.004650 0.157499 0.002013
v -0.004650 -0.116174 -0.031184
v -0.004650 -0.135245 -0.034260
v -0.004650 -0.153085 -0.028108
v -0.004650 -0.130673 -0.021410
v -0.004650 -0.130631 -0.008730
v -0.004650 -0.139243 0.002035
v -0.004650 -0.161697 -0.003501
v -0.004650 -0.152469 0.011878
v -0.004650 -0.133707 0.019218
v -0.004650 -0.120788 0.013723
v -0.004650 -0.105716 0.010032
v -0.004650 -0.094481 0.009614
v -0.004650 0.081604 0.010648
v -0.004650 0.099137 0.017209
v -0.004650 0.107032 0.028283
v -0.004650 0.117028 0.034486
v -0.004650 0.136099 0.035460
v -0.004650 0.150811 0.028488
v -0.004650 0.127435 0.020798
v -0.004650 0.125282 0.006649
v -0.004650 0.134509 -0.004219
v 0.004697 0.089769 -0.010549
v -0.004650 0.089769 -0.010549
vt 0.123307 0.227608
vt 0.123307 0.205986
vt 0.068209 0.205986
vt 0.068209 0.227608
vt 0.977118 0.311525
vt 0.977118 0.290037
vt 0.944216 0.290037
vt 0.944216 0.311525
vt 0.887643 0.311525
vt 0.887643 0.290037
vt 0.850214 0.290037
vt 0.850214 0.311525
vt 0.035230 0.205986
vt 0.035230 0.227608
vt 0.579217 0.908769
vt 0.634578 0.723693
vt 0.515863 0.755721
vt 0.524692 0.637403
vt 0.748933 0.706576
vt 0.583457 0.560837
vt 0.709805 0.504677
vt 0.790262 0.975898
vt 0.901223 0.904319
vt 0.837232 0.781918
vt 0.976060 0.768733
vt 0.976060 0.673317
vt 0.933510 0.571560
vt 0.579471 0.906302
vt 0.518772 0.755083
vt 0.636862 0.723657
vt 0.527139 0.636944
vt 0.585379 0.560745
vt 0.750666 0.707102
vt 0.791803 0.973379
vt 0.838855 0.782777
vt 0.900079 0.904363
vt 0.976063 0.770265
vt 0.976699 0.674960
vt 0.933968 0.573119
vt 0.710984 0.505251
vt 0.963262 0.422678
vt 0.782273 0.388298
vt 0.963060 0.424550
vt 0.782725 0.389350
vt 0.386668 0.385221
vt 0.367625 0.585239
vt 0.486299 0.505030
vt 0.492638 0.679956
vt 0.155284 0.394987
vt 0.057542 0.518741
vt 0.147846 0.592130
vt 0.029008 0.679068
vt 0.093831 0.752719
vt 0.410504 0.770122
vt 0.247791 0.630824
vt 0.130657 0.833558
vt 0.336980 0.883121
vt 0.126462 0.948610
vt 0.298370 0.970147
vt 0.386655 0.386903
vt 0.485683 0.505252
vt 0.367863 0.584006
vt 0.491397 0.680130
vt 0.410224 0.770067
vt 0.249365 0.630123
vt 0.155326 0.394675
vt 0.147912 0.592868
vt 0.057430 0.519010
vt 0.029123 0.678066
vt 0.093859 0.752820
vt 0.130413 0.835206
vt 0.336654 0.882423
vt 0.126401 0.949374
vt 0.297799 0.971765
vt 0.977531 0.135708
vt 0.062625 0.127909
vt 0.037893 0.037447
vt 0.934873 0.034201
vt 0.977840 0.135872
vt 0.934861 0.035274
vt 0.036294 0.035274
vt 0.060366 0.129051
vt 0.170551 0.227608
vt 0.170551 0.205986
vt 0.204391 0.227608
vt 0.204391 0.205986
vt 0.231919 0.227608
vt 0.231919 0.205986
vt 0.271355 0.227608
vt 0.271355 0.205986
vt 0.310458 0.227608
vt 0.310457 0.205986
vt 0.726363 0.227608
vt 0.726363 0.205986
vt 0.758326 0.227608
vt 0.758326 0.205986
vt 0.781978 0.227608
vt 0.781978 0.205986
vt 0.808101 0.227608
vt 0.808101 0.205986
vt 0.852786 0.227608
vt 0.852786 0.205986
vt 0.896438 0.227608
vt 0.896438 0.205986
vt 0.950546 0.227608
vt 0.950546 0.205986
vt 0.979876 0.227608
vt 0.979876 0.205986
vt 0.065670 0.311526
vt 0.065670 0.290037
vt 0.033976 0.290037
vt 0.033976 0.311526
vt 0.118834 0.311526
vt 0.118834 0.290037
vt 0.160064 0.311526
vt 0.160064 0.290037
vt 0.206380 0.311526
vt 0.206380 0.290037
vt 0.238653 0.311525
vt 0.238653 0.290037
vt 0.274325 0.311525
vt 0.274325 0.290037
vt 0.300171 0.311525
vt 0.300171 0.290037
vt 0.704971 0.311525
vt 0.704971 0.290037
vt 0.748006 0.311525
vt 0.748006 0.290037
vt 0.779270 0.311526
vt 0.779270 0.290037
vt 0.806316 0.311525
vt 0.806316 0.290037
vn 0.5445 0.6893 0.4779
vn -0.5445 0.6893 0.4779
vn -0.8496 0.1563 0.5036
vn 0.8496 0.1563 0.5036
vn 0.8133 0.5597 0.1588
vn -0.8133 0.5597 0.1588
vn -0.8458 0.4073 -0.3445
vn 0.8458 0.4073 -0.3445
vn 0.5463 0.8360 -0.0522
vn -0.5463 0.8360 -0.0522
vn -0.6560 0.1468 0.7403
vn 0.6560 0.1468 0.7403
vn 0.6585 0.4930 -0.5685
vn 0.6480 0.1444 -0.7478
vn 0.6556 -0.2576 -0.7098
vn 0.7795 -0.1847 -0.5985
vn 0.6550 -0.2256 0.7211
vn 0.6654 -0.5107 0.5445
vn 0.7792 -0.3817 0.4971
vn -0.6585 0.4930 -0.5685
vn -0.6480 0.1444 -0.7478
vn -0.6556 -0.2576 -0.7098
vn -0.6550 -0.2256 0.7211
vn -0.6654 -0.5107 0.5445
vn -0.7792 -0.3817 0.4971
vn -0.7795 -0.1847 -0.5985
vn 0.7487 -0.1200 0.6519
vn 0.7071 -0.0011 -0.7071
vn -0.7487 -0.1200 0.6519
vn -0.7071 -0.0011 -0.7071
vn 0.5470 -0.6734 -0.4973
vn 0.8505 -0.1690 -0.4981
vn 0.6411 -0.4953 0.5861
vn 0.6311 0.0113 0.7756
vn 0.5432 -0.8394 0.0175
vn 0.6562 -0.0649 -0.7518
vn 0.8684 -0.3971 0.2968
vn 0.6212 0.4484 -0.6427
vn 0.7416 0.5301 -0.4110
vn 0.7258 0.2171 0.6527
vn 0.7902 -0.5787 -0.2019
vn 0.7635 0.3258 -0.5575
vn 0.7306 0.0944 0.6762
vn 0.7417 0.0976 -0.6635
vn 0.7120 0.0110 0.7021
vn -0.5470 -0.6734 -0.4973
vn -0.6411 -0.4953 0.5861
vn -0.8505 -0.1690 -0.4981
vn -0.6311 0.0113 0.7756
vn -0.7258 0.2171 0.6527
vn -0.7902 -0.5787 -0.2019
vn -0.5432 -0.8394 0.0175
vn -0.8684 -0.3971 0.2968
vn -0.6562 -0.0649 -0.7518
vn -0.6212 0.4484 -0.6427
vn -0.7416 0.5301 -0.4110
vn -0.7635 0.3258 -0.5575
vn -0.7306 0.0944 0.6762
vn -0.7417 0.0976 -0.6635
vn -0.7120 0.0110 0.7021
usemtl double_open_ended_spanner_190412_mat
s 1
f 8/1/1 37/2/2 58/3/3 29/4/4
f 28/5/5 57/6/6 56/7/7 27/8/8
f 26/9/9 55/10/10 54/11/11 25/12/12
f 29/4/4 58/3/3 57/13/6 28/14/5
f 27/8/8 56/7/7 55/10/10 26/9/9
f 8/15/1 29/16/4 7/17/13
f 6/18/14 7/17/13 29/16/4
f 6/18/14 29/16/4 28/19/5 5/20/15
f 4/21/16 5/20/15 28/19/5
f 26/22/9 25/23/12 27/24/8
f 25/23/12 24/25/17 27/24/8
f 24/25/17 23/26/18 27/24/8
f 23/26/18 22/27/19 27/24/8
f 27/24/8 22/27/19 4/21/16 28/19/5
f 37/28/2 36/29/20 58/30/3
f 35/31/21 58/30/3 36/29/20
f 34/32/22 58/30/3 35/31/21
f 58/30/3 34/32/22 57/33/6
f 55/34/10 56/35/7 54/36/11
f 54/36/11 56/35/7 53/37/23
f 53/37/23 56/35/7 52/38/24
f 52/38/24 56/35/7 51/39/25
f 34/32/22 33/40/26 57/33/6
f 57/33/6 33/40/26 51/39/25 56/35/7
f 21/41/27 59/42/28 4/21/16 22/27/19
f 50/43/29 51/39/25 33/40/26 60/44/30
f 15/45/31 14/46/32 16/47/33
f 17/48/34 16/47/33 14/46/32
f 11/49/35 10/50/36 12/51/37
f 10/50/36 9/52/38 12/51/37
f 9/52/38 1/53/39 12/51/37
f 18/54/40 17/48/34 14/46/32
f 14/46/32 13/55/41 18/54/40
f 12/51/37 1/53/39 13/55/41
f 18/54/40 13/55/41 1/53/39
f 2/56/42 19/57/43 18/54/40 1/53/39
f 3/58/44 20/59/45 19/57/43 2/56/42
f 44/60/46 45/61/47 43/62/48
f 46/63/49 43/62/48 45/61/47
f 47/64/50 43/62/48 46/63/49
f 43/62/48 47/64/50 42/65/51
f 40/66/52 41/67/53 39/68/54
f 39/68/54 41/67/53 38/69/55
f 38/69/55 41/67/53 30/70/56
f 41/67/53 42/65/51 30/70/56
f 47/64/50 30/70/56 42/65/51
f 31/71/57 30/70/56 47/64/50 48/72/58
f 32/73/59 31/71/57 48/72/58 49/74/60
f 60/75/30 32/76/59 49/77/60 50/78/29
f 59/79/28 21/80/27 20/81/45 3/82/44
f 7/83/13 36/84/20 37/2/2 8/1/1
f 6/85/14 35/86/21 36/84/20 7/83/13
f 5/87/15 34/88/22 35/86/21 6/85/14
f 4/89/16 33/90/26 34/88/22 5/87/15
f 59/91/28 60/92/30 33/90/26 4/89/16
f 3/93/44 32/94/59 60/92/30 59/91/28
f 2/95/42 31/96/57 32/94/59 3/93/44
f 1/97/39 30/98/56 31/96/57 2/95/42
f 9/99/38 38/100/55 30/98/56 1/97/39
f 10/101/36 39/102/54 38/100/55 9/99/38
f 11/103/35 40/104/52 39/102/54 10/101/36
f 12/105/37 41/106/53 40/104/52 11/103/35
f 13/107/41 42/108/51 41/106/53 12/105/37
f 14/109/32 43/110/48 42/111/51 13/112/41
f 15/113/31 44/114/46 43/110/48 14/109/32
f 16/115/33 45/116/47 44/114/46 15/113/31
f 17/117/34 46/118/49 45/116/47 16/115/33
f 18/119/40 47/120/50 46/118/49 17/117/34
f 19/121/43 48/122/58 47/120/50 18/119/40
f 20/123/45 49/124/60 48/122/58 19/121/43
f 21/125/27 50/126/29 49/124/60 20/123/45
f 22/127/19 51/128/25 50/126/29 21/125/27
f 23/129/18 52/130/24 51/128/25 22/127/19
f 24/131/17 53/132/23 52/130/24 23/129/18
f 25/12/12 54/11/11 53/132/23 24/131/17
