{"accessors":[{"bufferView":0,"byteOffset":0,"componentType":5126,"count":111,"max":[0.123864501714706,0.0109701901674271,0.05078149959445],"min":[-0.12386450171471,-0.00999999977648,-0.05078149959445],"normalized":false,"type":"VEC3"},{"bufferView":1,"byteOffset":0,"componentType":5126,"count":111,"max":[0.0189656764268875,0.00847920775413513,0.0000763009302318096,1],"min":[-1,-1,-1,-1],"normalized":false,"type":"VEC4"},{"bufferView":2,"byteOffset":0,"componentType":5126,"count":111,"max":[1,1,1],"min":[-1,-1,-1],"normalized":false,"type":"VEC3"},{"bufferView":3,"byteOffset":0,"componentType":5126,"count":111,"max":[1,1],"min":[0,0],"normalized":false,"type":"VEC2"},{"bufferView":4,"byteOffset":0,"componentType":5123,"count":111,"max":[110],"min":[0],"normalized":false,"type":"SCALAR"}],"asset":{"generator":"Godot Engine v4.3.stable.official@77dcf97d82cbfe4e4615475fa52ca03da645dbd8","version":"2.0"},"bufferViews":[{"buffer":0,"byteLength":1332,"byteOffset":0,"byteStride":12,"target":34962},{"buffer":0,"byteLength":1776,"byteOffset":1332,"byteStride":16,"target":34962},{"buffer":0,"byteLength":1332,"byteOffset":3108,"byteStride":12,"target":34962},{"buffer":0,"byteLength":888,"byteOffset":4440,"byteStride":8,"target":34962},{"buffer":0,"byteLength":222,"byteOffset":5328,"target":34963}],"buffers":[{"byteLength":5552,"uri":"tray0.bin"}],"extensionsUsed":["GODOT_single_root"],"materials":[{"extensions":{},"pbrMetallicRoughness":{"baseColorFactor":[0.99999988079071,0.99999988079071,0.99999988079071,1],"metallicFactor":0,"roughnessFactor":1}}],"meshes":[{"extras":{"targetNames":[]},"primitives":[{"attributes":{"NORMAL":2,"POSITION":0,"TANGENT":1,"TEXCOORD_0":3},"indices":4,"material":0,"mode":4}]}],"nodes":[{"children":[1],"mesh":0,"name":"Tray2","translation":[0.0407566986978054,0.678220987319946,0]},{"name":"CSGBox3D","translation":[0,0.004970190115273,0]}],"scene":0,"scenes":[{"nodes":[0]}]}